<mxfile host="app.diagrams.net" modified="2023-12-07T20:01:36.983Z" agent="Mozilla/5.0 (Windows NT 10.0; Win64; x64) AppleWebKit/537.36 (KHTML, like Gecko) Chrome/119.0.0.0 Safari/537.36 OPR/105.0.0.0" etag="g7jhUUJQeYmdGOoY7CNV" version="22.1.7" type="github">
  <diagram name="Page-1" id="e7e014a7-5840-1c2e-5031-d8a46d1fe8dd">
    <mxGraphModel dx="720" dy="410" grid="1" gridSize="10" guides="1" tooltips="1" connect="1" arrows="1" fold="1" page="1" pageScale="1" pageWidth="1169" pageHeight="826" background="none" math="0" shadow="0">
      <root>
        <mxCell id="0" />
        <mxCell id="1" parent="0" />
        <mxCell id="1RA7UFyV_v_G2vutu4Py-41" value="" style="rounded=0;whiteSpace=wrap;html=1;" vertex="1" parent="1">
          <mxGeometry x="140" y="50" width="440" height="330" as="geometry" />
        </mxCell>
        <mxCell id="1RA7UFyV_v_G2vutu4Py-42" value="Cliente" style="shape=umlActor;verticalLabelPosition=bottom;verticalAlign=top;html=1;outlineConnect=0;" vertex="1" parent="1">
          <mxGeometry x="50" y="150" width="30" height="60" as="geometry" />
        </mxCell>
        <mxCell id="1RA7UFyV_v_G2vutu4Py-43" value="Admon Hotel" style="shape=umlActor;verticalLabelPosition=bottom;verticalAlign=top;html=1;outlineConnect=0;" vertex="1" parent="1">
          <mxGeometry x="610" y="150" width="30" height="60" as="geometry" />
        </mxCell>
        <mxCell id="1RA7UFyV_v_G2vutu4Py-50" value="solcito&amp;nbsp; habitacion" style="ellipse;whiteSpace=wrap;html=1;" vertex="1" parent="1">
          <mxGeometry x="180" y="80" width="120" height="80" as="geometry" />
        </mxCell>
        <mxCell id="1RA7UFyV_v_G2vutu4Py-52" value="verifica exixtencia del cliente" style="ellipse;whiteSpace=wrap;html=1;" vertex="1" parent="1">
          <mxGeometry x="360" y="70" width="120" height="80" as="geometry" />
        </mxCell>
        <mxCell id="1RA7UFyV_v_G2vutu4Py-54" value="" style="endArrow=classic;html=1;rounded=0;entryX=0;entryY=0.5;entryDx=0;entryDy=0;" edge="1" parent="1" target="1RA7UFyV_v_G2vutu4Py-52">
          <mxGeometry width="50" height="50" relative="1" as="geometry">
            <mxPoint x="300" y="120" as="sourcePoint" />
            <mxPoint x="350" y="70" as="targetPoint" />
          </mxGeometry>
        </mxCell>
        <mxCell id="1RA7UFyV_v_G2vutu4Py-58" value="include" style="edgeLabel;html=1;align=center;verticalAlign=middle;resizable=0;points=[];" vertex="1" connectable="0" parent="1RA7UFyV_v_G2vutu4Py-54">
          <mxGeometry x="0.0342" y="2" relative="1" as="geometry">
            <mxPoint as="offset" />
          </mxGeometry>
        </mxCell>
        <mxCell id="1RA7UFyV_v_G2vutu4Py-55" value="Solicita CancelaciÃ³n de Reservas" style="ellipse;whiteSpace=wrap;html=1;" vertex="1" parent="1">
          <mxGeometry x="190" y="280" width="120" height="80" as="geometry" />
        </mxCell>
        <mxCell id="1RA7UFyV_v_G2vutu4Py-57" value="" style="endArrow=classic;html=1;rounded=0;entryX=0.083;entryY=0.263;entryDx=0;entryDy=0;entryPerimeter=0;" edge="1" parent="1" target="1RA7UFyV_v_G2vutu4Py-55">
          <mxGeometry width="50" height="50" relative="1" as="geometry">
            <mxPoint x="60" y="240" as="sourcePoint" />
            <mxPoint x="110" y="190" as="targetPoint" />
          </mxGeometry>
        </mxCell>
        <mxCell id="1RA7UFyV_v_G2vutu4Py-59" value="Comprobar fecha de reserva" style="ellipse;whiteSpace=wrap;html=1;" vertex="1" parent="1">
          <mxGeometry x="380" y="280" width="120" height="80" as="geometry" />
        </mxCell>
        <mxCell id="1RA7UFyV_v_G2vutu4Py-61" value="" style="endArrow=classic;html=1;rounded=0;" edge="1" parent="1" target="1RA7UFyV_v_G2vutu4Py-59">
          <mxGeometry width="50" height="50" relative="1" as="geometry">
            <mxPoint x="310" y="320" as="sourcePoint" />
            <mxPoint x="360" y="270" as="targetPoint" />
          </mxGeometry>
        </mxCell>
        <mxCell id="1RA7UFyV_v_G2vutu4Py-62" value="Registra reservas" style="ellipse;whiteSpace=wrap;html=1;" vertex="1" parent="1">
          <mxGeometry x="440" y="150" width="100" height="60" as="geometry" />
        </mxCell>
        <mxCell id="1RA7UFyV_v_G2vutu4Py-63" value="Cancela reservas" style="ellipse;whiteSpace=wrap;html=1;" vertex="1" parent="1">
          <mxGeometry x="440" y="220" width="100" height="60" as="geometry" />
        </mxCell>
        <mxCell id="1RA7UFyV_v_G2vutu4Py-64" value="" style="endArrow=classic;html=1;rounded=0;" edge="1" parent="1" target="1RA7UFyV_v_G2vutu4Py-62">
          <mxGeometry width="50" height="50" relative="1" as="geometry">
            <mxPoint x="600" y="220" as="sourcePoint" />
            <mxPoint x="650" y="170" as="targetPoint" />
          </mxGeometry>
        </mxCell>
        <mxCell id="1RA7UFyV_v_G2vutu4Py-66" value="" style="endArrow=classic;html=1;rounded=0;entryX=0.98;entryY=0.65;entryDx=0;entryDy=0;entryPerimeter=0;" edge="1" parent="1" target="1RA7UFyV_v_G2vutu4Py-63">
          <mxGeometry width="50" height="50" relative="1" as="geometry">
            <mxPoint x="630" y="230" as="sourcePoint" />
            <mxPoint x="680" y="180" as="targetPoint" />
          </mxGeometry>
        </mxCell>
      </root>
    </mxGraphModel>
  </diagram>
</mxfile>
